<svg xmlns="http://www.w3.org/2000/svg" width="16.031" height="14.26"><path d="M437.416 9121.36a11.5 11.5 0 0 1-1.676-.25 6.35 6.35 0 0 1-5.647 2.23c2.441-1.15 2.391-3.07 1.957-3.32a5.62 5.62 0 0 1-3.068-4.76c0-3.4 3.727-6.14 8.434-6.14s7.577 2.74 7.577 6.14-2.869 6.1-7.577 6.1m-4.174-7.48a1.5 1.5 0 1 0 1.5 1.49 1.5 1.5 0 0 0-1.5-1.49m3.75 0a1.5 1.5 0 1 0 1.5 1.49 1.5 1.5 0 0 0-1.5-1.49m3.75 0a1.5 1.5 0 1 0 1.5 1.49 1.5 1.5 0 0 0-1.5-1.49" data-name="SPEECH BUBBLE 2" style="fill:#95e1d3;fill-rule:evenodd" transform="translate(-428.969 -9109.12)"/></svg>