<svg xmlns="http://www.w3.org/2000/svg" width="19.438" height="11.26"><path d="M379.71 9115.78v.07a.73.73 0 0 1-.2.41c-.2.25-.427.48-.651.71a16.7 16.7 0 0 1-4.123 3.12 11 11 0 0 1-3.09 1.12 9 9 0 0 1-3.55-.05 13.55 13.55 0 0 1-5.5-2.86 15 15 0 0 1-2.108-2.04.78.78 0 0 1 0-1.05c.2-.24.426-.47.651-.7a16.7 16.7 0 0 1 4.123-3.12 11 11 0 0 1 3.089-1.12 8.8 8.8 0 0 1 3.55.05 13.4 13.4 0 0 1 5.5 2.86 15 15 0 0 1 2.108 2.03.8.8 0 0 1 .2.41v.12zm-9.72-3.84a3.645 3.645 0 1 0 3.646 3.65 3.645 3.645 0 0 0-3.646-3.65m0 5.47a1.825 1.825 0 1 1 1.823-1.82 1.824 1.824 0 0 1-1.823 1.82" style="fill:#95e1d3;fill-rule:evenodd" transform="translate(-360.281 -9110.12)"/></svg>