<?xml version="1.0" standalone="no"?>
<!DOCTYPE svg PUBLIC "-//W3C//DTD SVG 20010904//EN"
 "http://www.w3.org/TR/2001/REC-SVG-20010904/DTD/svg10.dtd">
<svg version="1.0" xmlns="http://www.w3.org/2000/svg"
 width="512.000000pt" height="512.000000pt" viewBox="0 0 512.000000 512.000000"
 preserveAspectRatio="xMidYMid meet">
<metadata>
Created by potrace 1.14, written by Peter Selinger 2001-2017
</metadata>
<g transform="translate(0.000000,512.000000) scale(0.100000,-0.100000)"
fill="#000000" stroke="none">
<path d="M2427 4804 c-1 -1 -36 -5 -78 -8 -42 -4 -87 -9 -100 -11 -13 -3 -39
-7 -59 -10 -20 -3 -47 -8 -60 -11 -14 -3 -36 -7 -50 -10 -69 -13 -226 -60
-317 -94 -99 -38 -299 -133 -352 -169 -14 -10 -53 -35 -86 -56 -64 -42 -156
-111 -215 -160 -89 -75 -272 -269 -340 -360 -41 -55 -78 -101 -82 -103 -5 -2
-8 -8 -8 -14 0 -6 -18 -39 -40 -74 -48 -76 -140 -258 -166 -329 -10 -27 -20
-52 -23 -55 -4 -3 -6 -9 -6 -15 -1 -5 -13 -46 -27 -90 -14 -44 -29 -97 -33
-118 -4 -20 -11 -34 -16 -31 -5 3 -6 -2 -3 -10 3 -9 3 -24 -1 -33 -4 -10 -9
-31 -11 -48 -4 -32 -12 -70 -14 -70 -1 0 -3 -24 -5 -53 -2 -30 -8 -59 -14 -66
-6 -7 -6 -17 -1 -26 5 -8 5 -21 2 -29 -4 -9 -7 -38 -7 -66 1 -27 -4 -53 -10
-57 -6 -5 -6 -8 0 -8 6 0 10 -46 10 -118 -1 -64 3 -123 8 -130 6 -8 5 -12 -4
-12 -10 0 -10 -3 -1 -12 16 -16 16 -52 -1 -42 -9 6 -9 5 0 -7 10 -13 19 -52
28 -124 2 -16 6 -39 9 -50 19 -74 24 -100 20 -106 -2 -4 1 -11 7 -14 5 -4 8
-13 5 -21 -3 -7 -1 -16 5 -20 6 -3 8 -12 5 -19 -3 -8 -1 -15 4 -17 5 -2 11
-14 13 -28 2 -14 9 -38 15 -53 7 -15 11 -31 10 -35 -1 -4 5 -21 14 -37 9 -17
18 -39 20 -50 1 -11 5 -22 8 -25 14 -14 39 -83 34 -92 -4 -6 -2 -8 3 -5 10 6
27 -27 24 -45 -1 -5 4 -8 10 -8 5 0 8 -4 5 -9 -4 -5 -3 -11 1 -13 10 -4 56
-88 49 -88 -3 0 3 -9 15 -21 11 -11 18 -27 15 -35 -3 -7 -2 -13 2 -11 4 1 8
-1 10 -5 1 -4 14 -19 28 -33 14 -14 23 -29 20 -34 -3 -5 1 -12 10 -15 9 -4 14
-9 10 -13 -3 -3 3 -12 14 -20 11 -8 20 -19 20 -24 0 -6 6 -16 13 -23 44 -46
67 -78 62 -87 -4 -5 -3 -8 2 -7 12 4 63 -48 56 -56 -4 -3 1 -6 10 -6 15 0 22
-11 18 -32 0 -5 5 -8 12 -8 7 0 39 -27 70 -60 32 -33 62 -60 68 -60 6 0 8 -3
6 -7 -5 -8 22 -38 33 -38 3 0 4 -4 2 -8 -1 -5 2 -6 8 -2 5 3 20 -5 32 -18 13
-13 45 -39 73 -58 27 -19 72 -51 100 -71 27 -21 56 -38 63 -38 6 0 12 -4 12
-9 0 -5 14 -14 30 -20 17 -5 30 -13 30 -16 0 -3 -5 -3 -12 1 -7 4 -8 3 -4 -4
4 -6 13 -9 20 -6 7 3 16 -2 19 -10 4 -9 13 -13 20 -10 8 3 23 -3 32 -13 10
-10 20 -17 22 -15 9 7 23 1 18 -8 -3 -6 1 -7 9 -4 9 3 16 1 16 -6 0 -6 5 -8
10 -5 6 3 10 1 10 -4 0 -6 3 -10 8 -9 12 4 132 -46 132 -55 0 -5 4 -6 9 -2 5
3 17 -2 25 -11 9 -8 16 -11 16 -6 0 7 11 6 29 -1 17 -6 27 -15 24 -21 -4 -5 1
-7 12 -3 9 4 24 2 31 -4 8 -6 14 -8 14 -4 0 4 7 1 17 -6 9 -8 18 -13 20 -11 1
1 12 2 24 2 13 0 18 -4 13 -12 -5 -9 -2 -9 9 1 12 9 17 10 17 2 0 -7 4 -10 8
-7 5 3 21 -1 36 -9 14 -8 24 -10 21 -5 -8 12 8 13 21 1 5 -5 34 -12 64 -15 30
-3 64 -8 75 -10 11 -3 26 -5 33 -5 7 -1 10 -6 7 -12 -4 -6 3 -5 14 3 18 11 23
11 31 -2 8 -12 10 -12 10 -1 0 11 3 11 17 0 14 -12 16 -12 8 0 -6 10 -4 12 6
6 7 -5 43 -10 79 -11 86 -3 82 -2 75 -16 -4 -7 -1 -6 7 2 15 17 40 20 50 5 5
-7 8 -7 8 0 0 6 34 10 82 9 46 0 88 2 93 6 6 4 38 6 72 6 33 -1 59 3 56 8 -3
5 0 6 8 4 8 -3 22 -1 33 4 14 8 17 7 10 -4 -6 -10 -5 -11 7 -1 8 7 32 13 52
15 20 1 37 5 37 8 0 4 6 7 13 7 18 1 60 10 80 18 9 4 24 2 32 -5 13 -11 14
-10 9 3 -4 12 0 15 20 13 14 -2 26 0 26 5 0 12 75 36 132 42 9 1 14 5 12 9 -3
4 0 8 6 8 7 0 41 14 77 30 35 17 71 30 79 30 8 0 14 5 14 11 0 5 5 7 10 4 6
-3 10 -1 10 5 0 7 7 9 16 6 8 -3 12 -2 9 3 -5 9 20 22 39 20 5 0 12 3 15 8 7
10 96 63 106 63 3 0 4 -4 0 -9 -3 -5 -1 -12 4 -16 6 -3 8 4 6 16 -3 15 2 23
15 26 11 3 20 9 20 13 0 4 14 13 30 20 17 7 30 17 30 22 0 6 9 8 19 5 13 -3
18 0 15 8 -5 13 41 48 63 48 7 0 10 4 7 8 -2 4 10 18 28 30 18 13 36 27 39 32
4 5 12 6 19 2 9 -5 11 -4 6 3 -4 7 11 28 35 49 23 21 48 44 56 51 7 7 17 11
22 7 5 -3 13 0 17 6 4 8 3 9 -4 5 -17 -10 -15 1 5 23 9 11 21 17 26 14 6 -3 8
-2 4 3 -3 5 19 36 49 69 30 32 54 62 54 67 0 4 7 8 16 8 8 0 13 4 10 9 -3 5 6
21 19 35 14 15 25 30 25 34 0 4 10 19 23 33 26 30 44 56 57 87 5 12 14 22 20
22 6 0 9 4 5 9 -3 5 1 15 8 23 7 7 16 21 20 31 4 11 12 15 18 11 8 -4 9 -3 5
4 -9 14 22 75 34 67 5 -3 12 0 16 6 4 8 3 9 -4 5 -7 -4 -12 -1 -12 8 0 9 5 16
11 16 5 0 8 4 4 9 -3 6 5 20 17 32 13 12 17 18 10 14 -12 -6 -12 -3 -1 16 7
13 14 26 15 29 1 3 5 15 9 27 4 13 10 21 14 19 3 -2 7 7 8 22 0 14 8 29 17 34
9 5 14 13 11 18 -9 15 17 90 28 83 6 -3 7 -1 4 4 -9 14 3 74 13 68 5 -3 6 5 2
17 -3 14 -1 19 6 14 6 -3 14 -1 18 5 4 8 3 9 -5 5 -13 -8 -12 2 9 89 13 54 18
79 19 108 1 10 4 16 9 14 4 -3 7 14 8 36 0 23 4 69 8 102 6 47 15 201 16 270
1 39 -10 157 -15 165 -3 5 0 10 7 10 8 0 9 3 3 8 -6 4 -12 23 -13 42 -2 19 -8
62 -13 95 -6 33 -11 69 -13 80 -1 11 -5 34 -10 50 -4 17 -12 50 -18 75 -14 62
-85 274 -110 330 -93 209 -217 411 -346 563 -71 84 -267 271 -352 335 -52 40
-99 76 -105 80 -5 4 -49 31 -97 60 -211 127 -479 234 -693 277 -193 38 -288
48 -473 49 -73 1 -134 1 -135 0z"/>
<path d="M4410 1266 c0 -2 7 -7 16 -10 8 -3 12 -2 9 4 -6 10 -25 14 -25 6z"/>
<path d="M4266 1078 c3 -5 10 -6 15 -3 13 9 11 12 -6 12 -8 0 -12 -4 -9 -9z"/>
<path d="M1115 780 c-3 -5 -1 -10 4 -10 6 0 11 5 11 10 0 6 -2 10 -4 10 -3 0
-8 -4 -11 -10z"/>
<path d="M1216 727 c3 -10 9 -15 12 -12 3 3 0 11 -7 18 -10 9 -11 8 -5 -6z"/>
<path d="M1513 535 c0 -8 4 -12 9 -9 5 3 6 10 3 15 -9 13 -12 11 -12 -6z"/>
<path d="M1633 485 c0 -8 4 -12 9 -9 5 3 6 10 3 15 -9 13 -12 11 -12 -6z"/>
<path d="M3470 479 c0 -5 5 -7 10 -4 6 3 10 8 10 11 0 2 -4 4 -10 4 -5 0 -10
-5 -10 -11z"/>
<path d="M1695 460 c3 -5 8 -10 11 -10 2 0 4 5 4 10 0 6 -5 10 -11 10 -5 0 -7
-4 -4 -10z"/>
<path d="M1806 422 c-3 -5 1 -9 9 -9 8 0 12 4 9 9 -3 4 -7 8 -9 8 -2 0 -6 -4
-9 -8z"/>
<path d="M1891 387 c2 -1 13 -9 24 -17 19 -14 19 -14 6 3 -7 9 -18 17 -24 17
-6 0 -8 -1 -6 -3z"/>
<path d="M2013 335 c0 -8 4 -12 9 -9 5 3 6 10 3 15 -9 13 -12 11 -12 -6z"/>
<path d="M2170 320 c0 -5 5 -10 11 -10 5 0 7 5 4 10 -3 6 -8 10 -11 10 -2 0
-4 -4 -4 -10z"/>
<path d="M2853 303 c4 -3 1 -13 -6 -22 -11 -14 -10 -14 5 -2 16 12 16 31 1 31
-4 0 -3 -3 0 -7z"/>
<path d="M2613 285 c0 -8 4 -12 9 -9 5 3 6 10 3 15 -9 13 -12 11 -12 -6z"/>
<path d="M2685 280 c-3 -6 1 -7 9 -4 18 7 21 14 7 14 -6 0 -13 -4 -16 -10z"/>
</g>
</svg>
