<svg xmlns="http://www.w3.org/2000/svg" width="512.000000pt" height="512.000000pt" version="1.0" viewBox="0 0 512.000000 512.000000"><path d="M242.7 31.6c-.1.1-3.6.5-7.8.8-4.2.4-8.7.9-10 1.1-1.3.3-3.9.7-5.9 1s-4.7.8-6 1.1c-1.4.3-3.6.7-5 1-6.9 1.3-22.6 6-31.7 9.4-9.9 3.8-29.9 13.3-35.2 16.9-1.4 1-5.3 3.5-8.6 5.6-6.4 4.2-15.6 11.1-21.5 16-8.9 7.5-27.2 26.9-34 36-4.1 5.5-7.8 10.1-8.2 10.3-.5.2-.8.8-.8 1.4s-1.8 3.9-4 7.4c-4.8 7.6-14 25.8-16.6 32.9-1 2.7-2 5.2-2.3 5.5-.4.3-.6.9-.6 1.5-.1.5-1.3 4.6-2.7 9s-2.9 9.7-3.3 11.8c-.4 2-1.1 3.4-1.6 3.1s-.6.2-.3 1c.3.9.3 2.4-.1 3.3-.4 1-.9 3.1-1.1 4.8-.4 3.2-1.2 7-1.4 7-.1 0-.3 2.4-.5 5.3-.2 3-.8 5.9-1.4 6.6s-.6 1.7-.1 2.6c.5.8.5 2.1.2 2.9-.4.9-.7 3.8-.7 6.6.1 2.7-.4 5.3-1 5.7-.6.5-.6.8 0 .8s1 4.6 1 11.8c-.1 6.4.3 12.3.8 13 .6.8.5 1.2-.4 1.2-1 0-1 .3-.1 1.2 1.6 1.6 1.6 5.2-.1 4.2-.9-.6-.9-.5 0 .7 1 1.3 1.9 5.2 2.8 12.4.2 1.6.6 3.9.9 5 1.9 7.4 2.4 10 2 10.6-.2.4.1 1.1.7 1.4.5.4.8 1.3.5 2.1-.3.7-.1 1.6.5 2 .6.3.8 1.2.5 1.9-.3.8-.1 1.5.4 1.7s1.1 1.4 1.3 2.8.9 3.8 1.5 5.3c.7 1.5 1.1 3.1 1 3.5s.5 2.1 1.4 3.7c.9 1.7 1.8 3.9 2 5 .1 1.1.5 2.2.8 2.5 1.4 1.4 3.9 8.3 3.4 9.2-.4.6-.2.8.3.5 1-.6 2.7 2.7 2.4 4.5-.1.5.4.8 1 .8.5 0 .8.4.5.9-.4.5-.3 1.1.1 1.3 1 .4 5.6 8.8 4.9 8.8-.3 0 .3.9 1.5 2.1 1.1 1.1 1.8 2.7 1.5 3.5-.3.7-.2 1.3.2 1.1.4-.1.8.1 1 .5.1.4 1.4 1.9 2.8 3.3s2.3 2.9 2 3.4.1 1.2 1 1.5c.9.4 1.4.9 1 1.3-.3.3.3 1.2 1.4 2s2 1.9 2 2.4c0 .6.6 1.6 1.3 2.3 4.4 4.6 6.7 7.8 6.2 8.7-.4.5-.3.8.2.7 1.2-.4 6.3 4.8 5.6 5.6-.4.3.1.6 1 .6 1.5 0 2.2 1.1 1.8 3.2 0 .5.5.8 1.2.8s3.9 2.7 7 6c3.2 3.3 6.2 6 6.8 6s.8.3.6.7c-.5.8 2.2 3.8 3.3 3.8.3 0 .4.4.2.8-.1.5.2.6.8.2.5-.3 2 .5 3.2 1.8 1.3 1.3 4.5 3.9 7.3 5.8 2.7 1.9 7.2 5.1 10 7.1 2.7 2.1 5.6 3.8 6.3 3.8.6 0 1.2.4 1.2.9s1.4 1.4 3 2c1.7.5 3 1.3 3 1.6s-.5.3-1.2-.1-.8-.3-.4.4c.4.6 1.3.9 2 .6s1.6.2 1.9 1c.4.9 1.3 1.3 2 1 .8-.3 2.3.3 3.2 1.3 1 1 2 1.7 2.2 1.5.9-.7 2.3-.1 1.8.8-.3.6.1.7.9.4.9-.3 1.6-.1 1.6.6 0 .6.5.8 1 .5.6-.3 1-.1 1 .4 0 .6.3 1 .8.9 1.2-.4 13.2 4.6 13.2 5.5 0 .5.4.6.9.2.5-.3 1.7.2 2.5 1.1.9.8 1.6 1.1 1.6.6 0-.7 1.1-.6 2.9.1 1.7.6 2.7 1.5 2.4 2.1-.4.5.1.7 1.2.3.9-.4 2.4-.2 3.1.4.8.6 1.4.8 1.4.4s.7-.1 1.7.6c.9.8 1.8 1.3 2 1.1.1-.1 1.2-.2 2.4-.2 1.3 0 1.8.4 1.3 1.2-.5.9-.2.9.9-.1 1.2-.9 1.7-1 1.7-.2 0 .7.4 1 .8.7.5-.3 2.1.1 3.6.9 1.4.8 2.4 1 2.1.5-.8-1.2.8-1.3 2.1-.1.5.5 3.4 1.2 6.4 1.5s6.4.8 7.5 1c1.1.3 2.6.5 3.3.5.7.1 1 .6.7 1.2-.4.6.3.5 1.4-.3 1.8-1.1 2.3-1.1 3.1.2.8 1.2 1 1.2 1 .1s.3-1.1 1.7 0c1.4 1.2 1.6 1.2.8 0q-.9-1.5.6-.6c.7.5 4.3 1 7.9 1.1 8.6.3 8.2.2 7.5 1.6-.4.7-.1.6.7-.2 1.5-1.7 4-2 5-.5.5.7.8.7.8 0 0-.6 3.4-1 8.2-.9 4.6 0 8.8-.2 9.3-.6.6-.4 3.8-.6 7.2-.6 3.3.1 5.9-.3 5.6-.8s0-.6.8-.4c.8.3 2.2.1 3.3-.4 1.4-.8 1.7-.7 1 .4-.6 1-.5 1.1.7.1.8-.7 3.2-1.3 5.2-1.5 2-.1 3.7-.5 3.7-.8 0-.4.6-.7 1.3-.7 1.8-.1 6-1 8-1.8.9-.4 2.4-.2 3.2.5 1.3 1.1 1.4 1 .9-.3-.4-1.2 0-1.5 2-1.3 1.4.2 2.6 0 2.6-.5 0-1.2 7.5-3.6 13.2-4.2.9-.1 1.4-.5 1.2-.9-.3-.4 0-.8.6-.8.7 0 4.1-1.4 7.7-3 3.5-1.7 7.1-3 7.9-3s1.4-.5 1.4-1.1c0-.5.5-.7 1-.4.6.3 1 .1 1-.5 0-.7.7-.9 1.6-.6.8.3 1.2.2.9-.3-.5-.9 2-2.2 3.9-2 .5 0 1.2-.3 1.5-.8.7-1 9.6-6.3 10.6-6.3.3 0 .4.4 0 .9-.3.5-.1 1.2.4 1.6.6.3.8-.4.6-1.6-.3-1.5.2-2.3 1.5-2.6 1.1-.3 2-.9 2-1.3s1.4-1.3 3-2c1.7-.7 3-1.7 3-2.2 0-.6.9-.8 1.9-.5 1.3.3 1.8 0 1.5-.8-.5-1.3 4.1-4.8 6.3-4.8.7 0 1-.4.7-.8-.2-.4 1-1.8 2.8-3 1.8-1.3 3.6-2.7 3.9-3.2.4-.5 1.2-.6 1.9-.2q1.35.75.6-.3c-.4-.7 1.1-2.8 3.5-4.9 2.3-2.1 4.8-4.4 5.6-5.1.7-.7 1.7-1.1 2.2-.7.5.3 1.3 0 1.7-.6.4-.8.3-.9-.4-.5-1.7 1-1.5-.1.5-2.3.9-1.1 2.1-1.7 2.6-1.4.6.3.8.2.4-.3-.3-.5 1.9-3.6 4.9-6.9 3-3.2 5.4-6.2 5.4-6.7 0-.4.7-.8 1.6-.8.8 0 1.3-.4 1-.9s.6-2.1 1.9-3.5c1.4-1.5 2.5-3 2.5-3.4s1-1.9 2.3-3.3c2.6-3 4.4-5.6 5.7-8.7.5-1.2 1.4-2.2 2-2.2s.9-.4.5-.9c-.3-.5.1-1.5.8-2.3.7-.7 1.6-2.1 2-3.1.4-1.1 1.2-1.5 1.8-1.1.8.4.9.3.5-.4-.9-1.4 2.2-7.5 3.4-6.7.5.3 1.2 0 1.6-.6.4-.8.3-.9-.4-.5s-1.2.1-1.2-.8.5-1.6 1.1-1.6c.5 0 .8-.4.4-.9-.3-.6.5-2 1.7-3.2 1.3-1.2 1.7-1.8 1-1.4-1.2.6-1.2.3-.1-1.6.7-1.3 1.4-2.6 1.5-2.9l.9-2.7c.4-1.3 1-2.1 1.4-1.9.3.2.7-.7.8-2.2 0-1.4.8-2.9 1.7-3.4s1.4-1.3 1.1-1.8c-.9-1.5 1.7-9 2.8-8.3.6.3.7.1.4-.4-.9-1.4.3-7.4 1.3-6.8.5.3.6-.5.2-1.7-.3-1.4-.1-1.9.6-1.4.6.3 1.4.1 1.8-.5.4-.8.3-.9-.5-.5-1.3.8-1.2-.2.9-8.9 1.3-5.4 1.8-7.9 1.9-10.8.1-1 .4-1.6.9-1.4.4.3.7-1.4.8-3.6 0-2.3.4-6.9.8-10.2.6-4.7 1.5-20.1 1.6-27 .1-3.9-1-15.7-1.5-16.5-.3-.5 0-1 .7-1 .8 0 .9-.3.3-.8-.6-.4-1.2-2.3-1.3-4.2-.2-1.9-.8-6.2-1.3-9.5-.6-3.3-1.1-6.9-1.3-8-.1-1.1-.5-3.4-1-5-.4-1.7-1.2-5-1.8-7.5-1.4-6.2-8.5-27.4-11-33-9.3-20.9-21.7-41.1-34.6-56.3-7.1-8.4-26.7-27.1-35.2-33.5-5.2-4-9.9-7.6-10.5-8-.5-.4-4.9-3.1-9.7-6-21.1-12.7-47.9-23.4-69.3-27.7-19.3-3.8-28.8-4.8-47.3-4.9-7.3-.1-13.4-.1-13.5 0M441 385.4c0 .2.7.7 1.6 1 .8.3 1.2.2.9-.4-.6-1-2.5-1.4-2.5-.6"/><path d="M426.6 404.2c.3.5 1 .6 1.5.3 1.3-.9 1.1-1.2-.6-1.2-.8 0-1.2.4-.9.9M111.5 434c-.3.5-.1 1 .4 1 .6 0 1.1-.5 1.1-1 0-.6-.2-1-.4-1-.3 0-.8.4-1.1 1m10.1 5.3c.3 1 .9 1.5 1.2 1.2s0-1.1-.7-1.8c-1-.9-1.1-.8-.5.6m29.7 19.2c0 .8.4 1.2.9.9s.6-1 .3-1.5c-.9-1.3-1.2-1.1-1.2.6m12 5c0 .8.4 1.2.9.9s.6-1 .3-1.5c-.9-1.3-1.2-1.1-1.2.6m183.7.6c0 .5.5.7 1 .4.6-.3 1-.8 1-1.1 0-.2-.4-.4-1-.4-.5 0-1 .5-1 1.1M169.5 466c.3.5.8 1 1.1 1 .2 0 .4-.5.4-1 0-.6-.5-1-1.1-1-.5 0-.7.4-.4 1m11.1 3.8c-.3.5.1.9.9.9s1.2-.4.9-.9c-.3-.4-.7-.8-.9-.8s-.6.4-.9.8m8.5 3.5c.2.1 1.3.9 2.4 1.7 1.9 1.4 1.9 1.4.6-.3-.7-.9-1.8-1.7-2.4-1.7q-.9 0-.6.3m12.2 5.2c0 .8.4 1.2.9.9s.6-1 .3-1.5c-.9-1.3-1.2-1.1-1.2.6M217 480c0 .5.5 1 1.1 1 .5 0 .7-.5.4-1-.3-.6-.8-1-1.1-1-.2 0-.4.4-.4 1m68.3 1.7c.4.3.1 1.3-.6 2.2-1.1 1.4-1 1.4.5.2 1.6-1.2 1.6-3.1.1-3.1-.4 0-.3.3 0 .7m-24 1.8c0 .8.4 1.2.9.9s.6-1 .3-1.5c-.9-1.3-1.2-1.1-1.2.6m7.2.5c-.3.6.1.7.9.4 1.8-.7 2.1-1.4.7-1.4-.6 0-1.3.4-1.6 1"/></svg>